G04 start of page 8 for group -4079 idx -4079 *
G04 Title: (unknown), topsilk *
G04 Creator: pcb 20140316 *
G04 CreationDate: Tue 10 Mar 2015 16:42:44 GMT UTC *
G04 For: db9052 *
G04 Format: Gerber/RS-274X *
G04 PCB-Dimensions (mil): 2150.00 2800.00 *
G04 PCB-Coordinate-Origin: lower left *
%MOIN*%
%FSLAX25Y25*%
%LNTOPSILK*%
%ADD49C,0.0080*%
%ADD48C,0.0100*%
G54D48*X10500Y31500D02*Y27500D01*
X10000Y31500D02*X12000D01*
X12500Y31000D01*
Y30000D01*
X12000Y29500D02*X12500Y30000D01*
X10500Y29500D02*X12000D01*
X14200Y27500D02*X15700Y29500D01*
Y31000D02*Y29500D01*
X15200Y31500D02*X15700Y31000D01*
X14200Y31500D02*X15200D01*
X13700Y31000D02*X14200Y31500D01*
X13700Y31000D02*Y30000D01*
X14200Y29500D01*
X15700D01*
X82500Y27000D02*X83500Y23000D01*
X84500Y27000D01*
X85700Y26200D02*X86500Y27000D01*
Y23000D01*
X85700D02*X87200D01*
X88400Y25000D02*X90400D01*
X89400Y26000D02*Y24000D01*
X82500Y16500D02*X83500Y12500D01*
X84500Y16500D01*
X85700Y15700D02*X86500Y16500D01*
Y12500D01*
X85700D02*X87200D01*
X88400Y14500D02*X90400D01*
X4000Y15000D02*X4500Y15500D01*
X6000D01*
X6500Y15000D01*
Y14000D01*
X4000Y11500D02*X6500Y14000D01*
X4000Y11500D02*X6500D01*
X7700Y12000D02*X8200Y11500D01*
X7700Y15000D02*Y12000D01*
Y15000D02*X8200Y15500D01*
X9200D01*
X9700Y15000D01*
Y12000D01*
X9200Y11500D02*X9700Y12000D01*
X8200Y11500D02*X9200D01*
X7700Y12500D02*X9700Y14500D01*
X10900Y14700D02*X11700Y15500D01*
Y11500D01*
X10900D02*X12400D01*
X13600Y15500D02*X15600D01*
X13600D02*Y13500D01*
X14100Y14000D01*
X15100D01*
X15600Y13500D01*
Y12000D01*
X15100Y11500D02*X15600Y12000D01*
X14100Y11500D02*X15100D01*
X13600Y12000D02*X14100Y11500D01*
X16800Y13500D02*X18800D01*
X20000Y12000D02*X20500Y11500D01*
X20000Y15000D02*Y12000D01*
Y15000D02*X20500Y15500D01*
X21500D01*
X22000Y15000D01*
Y12000D01*
X21500Y11500D02*X22000Y12000D01*
X20500Y11500D02*X21500D01*
X20000Y12500D02*X22000Y14500D01*
X23200Y15000D02*X23700Y15500D01*
X24700D01*
X25200Y15000D01*
X24700Y11500D02*X25200Y12000D01*
X23700Y11500D02*X24700D01*
X23200Y12000D02*X23700Y11500D01*
Y13700D02*X24700D01*
X25200Y15000D02*Y14200D01*
Y13200D02*Y12000D01*
Y13200D02*X24700Y13700D01*
X25200Y14200D02*X24700Y13700D01*
X26400Y13500D02*X28400D01*
X29600Y14700D02*X30400Y15500D01*
Y11500D01*
X29600D02*X31100D01*
X32300Y12000D02*X32800Y11500D01*
X32300Y15000D02*Y12000D01*
Y15000D02*X32800Y15500D01*
X33800D01*
X34300Y15000D01*
Y12000D01*
X33800Y11500D02*X34300Y12000D01*
X32800Y11500D02*X33800D01*
X32300Y12500D02*X34300Y14500D01*
X4000Y19000D02*X6000D01*
X6500Y19500D01*
Y20700D02*Y19500D01*
X6000Y21200D02*X6500Y20700D01*
X4500Y21200D02*X6000D01*
X4500Y23000D02*Y19000D01*
X4000Y23000D02*X6000D01*
X6500Y22500D01*
Y21700D01*
X6000Y21200D02*X6500Y21700D01*
X7700Y19000D02*X9700D01*
X10200Y19500D01*
Y20700D02*Y19500D01*
X9700Y21200D02*X10200Y20700D01*
X8200Y21200D02*X9700D01*
X8200Y23000D02*Y19000D01*
X7700Y23000D02*X9700D01*
X10200Y22500D01*
Y21700D01*
X9700Y21200D02*X10200Y21700D01*
X11400Y19000D02*X13400D01*
X13900Y19500D01*
Y20700D02*Y19500D01*
X13400Y21200D02*X13900Y20700D01*
X11900Y21200D02*X13400D01*
X11900Y23000D02*Y19000D01*
X11400Y23000D02*X13400D01*
X13900Y22500D01*
Y21700D01*
X13400Y21200D02*X13900Y21700D01*
X15100Y21000D02*X17100D01*
X18300Y23000D02*X20300D01*
X20800Y22500D01*
Y21500D01*
X20300Y21000D02*X20800Y21500D01*
X18800Y21000D02*X20300D01*
X18800Y23000D02*Y19000D01*
X19600Y21000D02*X20800Y19000D01*
X22000Y23000D02*X24000D01*
X23000D02*Y19000D01*
X25900D02*X27200D01*
X25200Y19700D02*X25900Y19000D01*
X25200Y22300D02*Y19700D01*
Y22300D02*X25900Y23000D01*
X27200D01*
X30200Y21000D02*X31200Y19000D01*
X32200Y21000D02*X31200Y19000D01*
X33400Y22500D02*X33900Y23000D01*
X34900D01*
X35400Y22500D01*
X34900Y19000D02*X35400Y19500D01*
X33900Y19000D02*X34900D01*
X33400Y19500D02*X33900Y19000D01*
Y21200D02*X34900D01*
X35400Y22500D02*Y21700D01*
Y20700D02*Y19500D01*
Y20700D02*X34900Y21200D01*
X35400Y21700D02*X34900Y21200D01*
X200500Y31500D02*Y27500D01*
X200000Y31500D02*X202000D01*
X202500Y31000D01*
Y30000D01*
X202000Y29500D02*X202500Y30000D01*
X200500Y29500D02*X202000D01*
X203700Y28000D02*X204200Y27500D01*
X203700Y28800D02*Y28000D01*
Y28800D02*X204400Y29500D01*
X205000D01*
X205700Y28800D01*
Y28000D01*
X205200Y27500D02*X205700Y28000D01*
X204200Y27500D02*X205200D01*
X203700Y30200D02*X204400Y29500D01*
X203700Y31000D02*Y30200D01*
Y31000D02*X204200Y31500D01*
X205200D01*
X205700Y31000D01*
Y30200D01*
X205000Y29500D02*X205700Y30200D01*
X179500Y27000D02*X180500Y23000D01*
X181500Y27000D01*
X182700Y23500D02*X183200Y23000D01*
X182700Y24300D02*Y23500D01*
Y24300D02*X183400Y25000D01*
X184000D01*
X184700Y24300D01*
Y23500D01*
X184200Y23000D02*X184700Y23500D01*
X183200Y23000D02*X184200D01*
X182700Y25700D02*X183400Y25000D01*
X182700Y26500D02*Y25700D01*
Y26500D02*X183200Y27000D01*
X184200D01*
X184700Y26500D01*
Y25700D01*
X184000Y25000D02*X184700Y25700D01*
X185900Y25000D02*X187900D01*
X186900Y26000D02*Y24000D01*
X179500Y17000D02*X180500Y13000D01*
X181500Y17000D01*
X182700Y13500D02*X183200Y13000D01*
X182700Y14300D02*Y13500D01*
Y14300D02*X183400Y15000D01*
X184000D01*
X184700Y14300D01*
Y13500D01*
X184200Y13000D02*X184700Y13500D01*
X183200Y13000D02*X184200D01*
X182700Y15700D02*X183400Y15000D01*
X182700Y16500D02*Y15700D01*
Y16500D02*X183200Y17000D01*
X184200D01*
X184700Y16500D01*
Y15700D01*
X184000Y15000D02*X184700Y15700D01*
X185900Y15000D02*X187900D01*
X4500Y8000D02*Y4000D01*
X5800Y8000D02*X6500Y7300D01*
Y4700D01*
X5800Y4000D02*X6500Y4700D01*
X4000Y4000D02*X5800D01*
X4000Y8000D02*X5800D01*
X9200Y6000D02*X9700Y5500D01*
X8200Y6000D02*X9200D01*
X7700Y5500D02*X8200Y6000D01*
X7700Y5500D02*Y4500D01*
X8200Y4000D01*
X9700Y6000D02*Y4500D01*
X10200Y4000D01*
X8200D02*X9200D01*
X9700Y4500D01*
X11400Y6000D02*X12400Y4000D01*
X13400Y6000D02*X12400Y4000D01*
X14600Y7000D02*Y6900D01*
Y5500D02*Y4000D01*
X17600Y8000D02*Y4000D01*
X17100D02*X17600Y4500D01*
X16100Y4000D02*X17100D01*
X15600Y4500D02*X16100Y4000D01*
X15600Y5500D02*Y4500D01*
Y5500D02*X16100Y6000D01*
X17100D01*
X17600Y5500D01*
X20600Y7000D02*Y4000D01*
Y7000D02*X21300Y8000D01*
X22400D01*
X23100Y7000D01*
Y4000D01*
X20600Y6000D02*X23100D01*
X24300Y8000D02*Y6000D01*
X24800Y4000D01*
X25800Y6000D01*
X26800Y4000D01*
X27300Y6000D01*
Y8000D02*Y6000D01*
X30300Y4000D02*X32300D01*
X32800Y4500D01*
Y5700D02*Y4500D01*
X32300Y6200D02*X32800Y5700D01*
X30800Y6200D02*X32300D01*
X30800Y8000D02*Y4000D01*
X30300Y8000D02*X32300D01*
X32800Y7500D01*
Y6700D01*
X32300Y6200D02*X32800Y6700D01*
X35500Y6000D02*X36000Y5500D01*
X34500Y6000D02*X35500D01*
X34000Y5500D02*X34500Y6000D01*
X34000Y5500D02*Y4500D01*
X34500Y4000D01*
X36000Y6000D02*Y4500D01*
X36500Y4000D01*
X34500D02*X35500D01*
X36000Y4500D01*
X38200Y5500D02*Y4000D01*
Y5500D02*X38700Y6000D01*
X39700D01*
X37700D02*X38200Y5500D01*
X41400Y8000D02*Y4500D01*
X41900Y4000D01*
X40900Y6500D02*X41900D01*
X42900Y5500D02*Y4500D01*
Y5500D02*X43400Y6000D01*
X44400D01*
X44900Y5500D01*
Y4500D01*
X44400Y4000D02*X44900Y4500D01*
X43400Y4000D02*X44400D01*
X42900Y4500D02*X43400Y4000D01*
X46600Y5500D02*Y4000D01*
Y5500D02*X47100Y6000D01*
X47600D01*
X48100Y5500D01*
Y4000D01*
X46100Y6000D02*X46600Y5500D01*
X77500Y235000D02*X137500D01*
Y255000D02*Y235000D01*
X77500Y255000D02*X137500D01*
X77500D02*Y235000D01*
X87500Y245000D02*Y235000D01*
X77500Y245000D02*X87500D01*
G54D49*X144107Y228255D02*X144893D01*
X144107Y222745D02*X144893D01*
G54D48*X56750Y182000D02*Y163000D01*
X87750D01*
Y182000D01*
X56750D02*X69750D01*
X87750D02*X74750D01*
X69750D02*G75*G03X74750Y182000I2500J0D01*G01*
X50500Y218000D02*Y199000D01*
X81500D01*
Y218000D01*
X50500D02*X63500D01*
X81500D02*X68500D01*
X63500D02*G75*G03X68500Y218000I2500J0D01*G01*
X108548Y187003D02*Y168351D01*
X139680D01*
Y187003D01*
X108548D02*X121614D01*
X139680D02*X126614D01*
X121614D02*G75*G03X126614Y187003I2500J0D01*G01*
G54D49*X100064Y69245D02*X100850D01*
X100064Y74755D02*X100850D01*
X100064Y91245D02*X100850D01*
X100064Y96755D02*X100850D01*
G54D48*X108632Y218000D02*Y199000D01*
X139632D01*
Y218000D01*
X108632D02*X121632D01*
X139632D02*X126632D01*
X121632D02*G75*G03X126632Y218000I2500J0D01*G01*
X192500Y265000D02*Y35000D01*
X212500D01*
Y265000D01*
X192500D01*
Y255000D02*X202500D01*
Y265000D01*
G54D49*X177755Y62436D02*Y61650D01*
X172245Y62436D02*Y61650D01*
X144064Y110745D02*X144850D01*
X144064Y116255D02*X144850D01*
X93745Y162850D02*Y162064D01*
X99255Y162850D02*Y162064D01*
X95745Y186936D02*Y186150D01*
X101255Y186936D02*Y186150D01*
G54D48*X2500Y265000D02*Y35000D01*
X22500D01*
Y265000D01*
X2500D01*
Y255000D02*X12500D01*
Y265000D01*
G54D49*X72564Y194255D02*X73350D01*
X72564Y188745D02*X73350D01*
X46755Y206393D02*Y205607D01*
X41245Y206393D02*Y205607D01*
X67245Y229350D02*Y228564D01*
X72755Y229350D02*Y228564D01*
X43288Y170393D02*Y169607D01*
X48798Y170393D02*Y169607D01*
X25245Y233850D02*Y233064D01*
X30755Y233850D02*Y233064D01*
G54D48*X95000Y10000D02*X175000D01*
Y30000D02*Y10000D01*
X95000Y30000D02*X175000D01*
X95000D02*Y10000D01*
X105000Y20000D02*Y10000D01*
X95000Y20000D02*X105000D01*
X45500Y40750D02*X64500D01*
Y71750D02*Y40750D01*
X45500Y71750D02*X64500D01*
X45500Y53750D02*Y40750D01*
Y71750D02*Y58750D01*
Y53750D02*G75*G03X45500Y58750I0J2500D01*G01*
G54D49*X116715Y62215D02*X152385D01*
X116715Y100785D02*Y62215D01*
Y100785D02*X155285D01*
Y65115D01*
X152385Y62215D01*
X153385Y65115D02*G75*G03X153385Y65115I-1000J0D01*G01*
X55650Y30745D02*X56436D01*
X55650Y36255D02*X56436D01*
X100064Y78245D02*X100850D01*
X100064Y83755D02*X100850D01*
X81755Y87936D02*Y87150D01*
X76245Y87936D02*Y87150D01*
X100064Y60745D02*X100850D01*
X100064Y66255D02*X100850D01*
X76245Y73350D02*Y72564D01*
X81755Y73350D02*Y72564D01*
G54D48*X78700Y233500D02*X79500D01*
Y230000D01*
X79000Y229500D02*X79500Y230000D01*
X78500Y229500D02*X79000D01*
X78000Y230000D02*X78500Y229500D01*
X78000Y230500D02*Y230000D01*
X80700Y231000D02*X82700Y233500D01*
X80700Y231000D02*X83200D01*
X82700Y233500D02*Y229500D01*
X4200Y270500D02*X5000D01*
Y267000D01*
X4500Y266500D02*X5000Y267000D01*
X4000Y266500D02*X4500D01*
X3500Y267000D02*X4000Y266500D01*
X3500Y267500D02*Y267000D01*
X6200Y270000D02*X6700Y270500D01*
X7700D01*
X8200Y270000D01*
X7700Y266500D02*X8200Y267000D01*
X6700Y266500D02*X7700D01*
X6200Y267000D02*X6700Y266500D01*
Y268700D02*X7700D01*
X8200Y270000D02*Y269200D01*
Y268200D02*Y267000D01*
Y268200D02*X7700Y268700D01*
X8200Y269200D02*X7700Y268700D01*
X193700Y270500D02*X194500D01*
Y267000D01*
X194000Y266500D02*X194500Y267000D01*
X193500Y266500D02*X194000D01*
X193000Y267000D02*X193500Y266500D01*
X193000Y267500D02*Y267000D01*
X195700Y270000D02*X196200Y270500D01*
X197700D01*
X198200Y270000D01*
Y269000D01*
X195700Y266500D02*X198200Y269000D01*
X195700Y266500D02*X198200D01*
X61150Y232450D02*Y231150D01*
X61850Y233150D02*X61150Y232450D01*
X61850Y233150D02*X64450D01*
X65150Y232450D01*
Y231150D01*
X64350Y229950D02*X65150Y229150D01*
X61150D02*X65150D01*
X61150Y229950D02*Y228450D01*
X65150Y227250D02*Y225250D01*
X63150Y227250D02*X65150D01*
X63150D02*X63650Y226750D01*
Y225750D01*
X63150Y225250D01*
X61650D02*X63150D01*
X61150Y225750D02*X61650Y225250D01*
X61150Y226750D02*Y225750D01*
X61650Y227250D02*X61150Y226750D01*
X95409Y223650D02*X97409D01*
X97909Y223150D01*
Y222150D01*
X97409Y221650D02*X97909Y222150D01*
X95909Y221650D02*X97409D01*
X95909Y223650D02*Y219650D01*
X96709Y221650D02*X97909Y219650D01*
X99109Y222850D02*X99909Y223650D01*
Y219650D01*
X99109D02*X100609D01*
X101809Y223150D02*X102309Y223650D01*
X103809D01*
X104309Y223150D01*
Y222150D01*
X101809Y219650D02*X104309Y222150D01*
X101809Y219650D02*X104309D01*
X36350Y230264D02*Y228964D01*
X35650Y228264D02*X36350Y228964D01*
X33050Y228264D02*X35650D01*
X33050D02*X32350Y228964D01*
Y230264D02*Y228964D01*
X34850Y231464D02*X32350Y233464D01*
X34850Y233964D02*Y231464D01*
X32350Y233464D02*X36350D01*
X153007Y223650D02*X154307D01*
X152307Y224350D02*X153007Y223650D01*
X152307Y226950D02*Y224350D01*
Y226950D02*X153007Y227650D01*
X154307D01*
X155507Y226850D02*X156307Y227650D01*
Y223650D01*
X155507D02*X157007D01*
X158707D02*X160707Y227650D01*
X158207D02*X160707D01*
X96700Y35500D02*X97500D01*
Y32000D01*
X97000Y31500D02*X97500Y32000D01*
X96500Y31500D02*X97000D01*
X96000Y32000D02*X96500Y31500D01*
X96000Y32500D02*Y32000D01*
X98700Y34700D02*X99500Y35500D01*
Y31500D01*
X98700D02*X100200D01*
X66500Y53250D02*X70000D01*
X70500Y53750D01*
Y54750D02*Y53750D01*
Y54750D02*X70000Y55250D01*
X66500D02*X70000D01*
X67000Y56450D02*X66500Y56950D01*
Y58450D02*Y56950D01*
Y58450D02*X67000Y58950D01*
X68000D01*
X70500Y56450D02*X68000Y58950D01*
X70500D02*Y56450D01*
X44007Y31650D02*X45307D01*
X43307Y32350D02*X44007Y31650D01*
X43307Y34950D02*Y32350D01*
Y34950D02*X44007Y35650D01*
X45307D01*
X46507Y32150D02*X47007Y31650D01*
X46507Y32950D02*Y32150D01*
Y32950D02*X47207Y33650D01*
X47807D01*
X48507Y32950D01*
Y32150D01*
X48007Y31650D02*X48507Y32150D01*
X47007Y31650D02*X48007D01*
X46507Y34350D02*X47207Y33650D01*
X46507Y35150D02*Y34350D01*
Y35150D02*X47007Y35650D01*
X48007D01*
X48507Y35150D01*
Y34350D01*
X47807Y33650D02*X48507Y34350D01*
X176850Y48549D02*Y47249D01*
X176150Y46549D02*X176850Y47249D01*
X173550Y46549D02*X176150D01*
X173550D02*X172850Y47249D01*
Y48549D02*Y47249D01*
X173650Y49749D02*X172850Y50549D01*
X176850D01*
Y51249D02*Y49749D01*
X176350Y52449D02*X176850Y52949D01*
X173350Y52449D02*X176350D01*
X173350D02*X172850Y52949D01*
Y53949D02*Y52949D01*
Y53949D02*X173350Y54449D01*
X176350D01*
X176850Y53949D02*X176350Y54449D01*
X176850Y53949D02*Y52949D01*
X175850Y52449D02*X173850Y54449D01*
X152593Y111650D02*X153893D01*
X151893Y112350D02*X152593Y111650D01*
X151893Y114950D02*Y112350D01*
Y114950D02*X152593Y115650D01*
X153893D01*
X155593Y111650D02*X157093Y113650D01*
Y115150D02*Y113650D01*
X156593Y115650D02*X157093Y115150D01*
X155593Y115650D02*X156593D01*
X155093Y115150D02*X155593Y115650D01*
X155093Y115150D02*Y114150D01*
X155593Y113650D01*
X157093D01*
X113000Y60000D02*Y56500D01*
X113500Y56000D01*
X114500D01*
X115000Y56500D01*
Y60000D02*Y56500D01*
X116200Y59200D02*X117000Y60000D01*
Y56000D01*
X116200D02*X117700D01*
X89093Y79150D02*X90393D01*
X88393Y79850D02*X89093Y79150D01*
X88393Y82450D02*Y79850D01*
Y82450D02*X89093Y83150D01*
X90393D01*
X91593Y82350D02*X92393Y83150D01*
Y79150D01*
X91593D02*X93093D01*
X88093Y92150D02*X89393D01*
X87393Y92850D02*X88093Y92150D01*
X87393Y95450D02*Y92850D01*
Y95450D02*X88093Y96150D01*
X89393D01*
X90593Y95650D02*X91093Y96150D01*
X92593D01*
X93093Y95650D01*
Y94650D01*
X90593Y92150D02*X93093Y94650D01*
X90593Y92150D02*X93093D01*
X79850Y96807D02*Y95507D01*
X79150Y94807D02*X79850Y95507D01*
X76550Y94807D02*X79150D01*
X76550D02*X75850Y95507D01*
Y96807D02*Y95507D01*
Y100007D02*Y98007D01*
X77850D01*
X77350Y98507D01*
Y99507D02*Y98507D01*
Y99507D02*X77850Y100007D01*
X79350D01*
X79850Y99507D02*X79350Y100007D01*
X79850Y99507D02*Y98507D01*
X79350Y98007D02*X79850Y98507D01*
X88679Y70150D02*X89979D01*
X87979Y70850D02*X88679Y70150D01*
X87979Y73450D02*Y70850D01*
Y73450D02*X88679Y74150D01*
X89979D01*
X91179Y73650D02*X91679Y74150D01*
X92679D01*
X93179Y73650D01*
X92679Y70150D02*X93179Y70650D01*
X91679Y70150D02*X92679D01*
X91179Y70650D02*X91679Y70150D01*
Y72350D02*X92679D01*
X93179Y73650D02*Y72850D01*
Y71850D02*Y70650D01*
Y71850D02*X92679Y72350D01*
X93179Y72850D02*X92679Y72350D01*
X88679Y61650D02*X89979D01*
X87979Y62350D02*X88679Y61650D01*
X87979Y64950D02*Y62350D01*
Y64950D02*X88679Y65650D01*
X89979D01*
X92679D02*X93179Y65150D01*
X91679Y65650D02*X92679D01*
X91179Y65150D02*X91679Y65650D01*
X91179Y65150D02*Y62150D01*
X91679Y61650D01*
X92679Y63850D02*X93179Y63350D01*
X91179Y63850D02*X92679D01*
X91679Y61650D02*X92679D01*
X93179Y62150D01*
Y63350D02*Y62150D01*
X80850Y61721D02*Y60421D01*
X80150Y59721D02*X80850Y60421D01*
X77550Y59721D02*X80150D01*
X77550D02*X76850Y60421D01*
Y61721D02*Y60421D01*
X80850Y63421D02*X76850Y65421D01*
Y62921D01*
X69750Y161000D02*Y157500D01*
X70250Y157000D01*
X71250D01*
X71750Y157500D01*
Y161000D02*Y157500D01*
X72950Y158500D02*X74950Y161000D01*
X72950Y158500D02*X75450D01*
X74950Y161000D02*Y157000D01*
X69507Y183150D02*X70807D01*
X68807Y183850D02*X69507Y183150D01*
X68807Y186450D02*Y183850D01*
Y186450D02*X69507Y187150D01*
X70807D01*
X72007Y186350D02*X72807Y187150D01*
Y183150D01*
X72007D02*X73507D01*
X74707Y184650D02*X76707Y187150D01*
X74707Y184650D02*X77207D01*
X76707Y187150D02*Y183150D01*
X104850Y160764D02*Y159464D01*
X104150Y158764D02*X104850Y159464D01*
X101550Y158764D02*X104150D01*
X101550D02*X100850Y159464D01*
Y160764D02*Y159464D01*
X101650Y161964D02*X100850Y162764D01*
X104850D01*
Y163464D02*Y161964D01*
X101650Y164664D02*X100850Y165464D01*
X104850D01*
Y166164D02*Y164664D01*
X40550Y194107D02*X41850D01*
X39850Y194807D02*X40550Y194107D01*
X39850Y197407D02*Y194807D01*
Y197407D02*X40550Y198107D01*
X41850D01*
X43050Y197307D02*X43850Y198107D01*
Y194107D01*
X43050D02*X44550D01*
X47250Y198107D02*X47750Y197607D01*
X46250Y198107D02*X47250D01*
X45750Y197607D02*X46250Y198107D01*
X45750Y197607D02*Y194607D01*
X46250Y194107D01*
X47250Y196307D02*X47750Y195807D01*
X45750Y196307D02*X47250D01*
X46250Y194107D02*X47250D01*
X47750Y194607D01*
Y195807D02*Y194607D01*
X153173Y203150D02*X155173D01*
X155673Y202650D01*
Y201650D01*
X155173Y201150D02*X155673Y201650D01*
X153673Y201150D02*X155173D01*
X153673Y203150D02*Y199150D01*
X154473Y201150D02*X155673Y199150D01*
X156873Y202350D02*X157673Y203150D01*
Y199150D01*
X156873D02*X158373D01*
X159573Y200650D02*X161573Y203150D01*
X159573Y200650D02*X162073D01*
X161573Y203150D02*Y199150D01*
X153614Y213150D02*X155614D01*
X156114Y212650D01*
Y211650D01*
X155614Y211150D02*X156114Y211650D01*
X154114Y211150D02*X155614D01*
X154114Y213150D02*Y209150D01*
X154914Y211150D02*X156114Y209150D01*
X157314Y212350D02*X158114Y213150D01*
Y209150D01*
X157314D02*X158814D01*
X160014Y212650D02*X160514Y213150D01*
X161514D01*
X162014Y212650D01*
X161514Y209150D02*X162014Y209650D01*
X160514Y209150D02*X161514D01*
X160014Y209650D02*X160514Y209150D01*
Y211350D02*X161514D01*
X162014Y212650D02*Y211850D01*
Y210850D02*Y209650D01*
Y210850D02*X161514Y211350D01*
X162014Y211850D02*X161514Y211350D01*
X122132Y206000D02*Y202500D01*
X122632Y202000D01*
X123632D01*
X124132Y202500D01*
Y206000D02*Y202500D01*
X126832Y206000D02*X127332Y205500D01*
X125832Y206000D02*X126832D01*
X125332Y205500D02*X125832Y206000D01*
X125332Y205500D02*Y202500D01*
X125832Y202000D01*
X126832Y204200D02*X127332Y203700D01*
X125332Y204200D02*X126832D01*
X125832Y202000D02*X126832D01*
X127332Y202500D01*
Y203700D02*Y202500D01*
X37693Y173321D02*Y172021D01*
X38393Y174021D02*X37693Y173321D01*
X38393Y174021D02*X40993D01*
X41693Y173321D01*
Y172021D01*
X40893Y170821D02*X41693Y170021D01*
X37693D02*X41693D01*
X37693Y170821D02*Y169321D01*
X41193Y168121D02*X41693Y167621D01*
Y166121D01*
X41193Y165621D01*
X40193D02*X41193D01*
X37693Y168121D02*X40193Y165621D01*
X37693Y168121D02*Y165621D01*
X64000Y213500D02*Y210000D01*
X64500Y209500D01*
X65500D01*
X66000Y210000D01*
Y213500D02*Y210000D01*
X67200Y213500D02*X69200D01*
X67200D02*Y211500D01*
X67700Y212000D01*
X68700D01*
X69200Y211500D01*
Y210000D01*
X68700Y209500D02*X69200Y210000D01*
X67700Y209500D02*X68700D01*
X67200Y210000D02*X67700Y209500D01*
X121614Y166677D02*Y163177D01*
X122114Y162677D01*
X123114D01*
X123614Y163177D01*
Y166677D02*Y163177D01*
X124814Y166177D02*X125314Y166677D01*
X126314D01*
X126814Y166177D01*
X126314Y162677D02*X126814Y163177D01*
X125314Y162677D02*X126314D01*
X124814Y163177D02*X125314Y162677D01*
Y164877D02*X126314D01*
X126814Y166177D02*Y165377D01*
Y164377D02*Y163177D01*
Y164377D02*X126314Y164877D01*
X126814Y165377D02*X126314Y164877D01*
X94350Y183850D02*Y182550D01*
X93650Y181850D02*X94350Y182550D01*
X91050Y181850D02*X93650D01*
X91050D02*X90350Y182550D01*
Y183850D02*Y182550D01*
X91150Y185050D02*X90350Y185850D01*
X94350D01*
Y186550D02*Y185050D01*
X90850Y187750D02*X90350Y188250D01*
Y189250D02*Y188250D01*
Y189250D02*X90850Y189750D01*
X94350Y189250D02*X93850Y189750D01*
X94350Y189250D02*Y188250D01*
X93850Y187750D02*X94350Y188250D01*
X92150Y189250D02*Y188250D01*
X90850Y189750D02*X91650D01*
X92650D02*X93850D01*
X92650D02*X92150Y189250D01*
X91650Y189750D02*X92150Y189250D01*
X91291Y203150D02*X93291D01*
X93791Y202650D01*
Y201650D01*
X93291Y201150D02*X93791Y201650D01*
X91791Y201150D02*X93291D01*
X91791Y203150D02*Y199150D01*
X92591Y201150D02*X93791Y199150D01*
X94991Y202350D02*X95791Y203150D01*
Y199150D01*
X94991D02*X96491D01*
X97691Y202350D02*X98491Y203150D01*
Y199150D01*
X97691D02*X99191D01*
M02*
