G04 start of page 7 for group -4062 idx -4062 *
G04 Title: (unknown), soldermask *
G04 Creator: pcb 20140316 *
G04 CreationDate: Tue 10 Mar 2015 16:42:44 GMT UTC *
G04 For: db9052 *
G04 Format: Gerber/RS-274X *
G04 PCB-Dimensions (mil): 2150.00 2800.00 *
G04 PCB-Coordinate-Origin: lower left *
%MOIN*%
%FSLAX25Y25*%
%LNBOTTOMMASK*%
%ADD47C,0.0001*%
%ADD46C,0.0660*%
G54D46*X7500Y240000D03*
X17500D03*
X7500Y230000D03*
X17500D03*
X7500Y220000D03*
X17500D03*
X7500Y210000D03*
X17500D03*
X7500Y200000D03*
Y190000D03*
Y180000D03*
X17500Y200000D03*
Y190000D03*
Y180000D03*
X7500Y170000D03*
Y160000D03*
Y150000D03*
Y140000D03*
X17500Y170000D03*
Y160000D03*
Y150000D03*
Y140000D03*
X7500Y130000D03*
Y120000D03*
Y110000D03*
X17500Y130000D03*
Y120000D03*
Y110000D03*
Y100000D03*
Y90000D03*
Y80000D03*
X7500Y100000D03*
Y90000D03*
Y80000D03*
Y70000D03*
X17500D03*
X7500Y60000D03*
Y50000D03*
Y40000D03*
X17500Y60000D03*
Y50000D03*
Y40000D03*
X122500Y250000D03*
G54D47*G36*
X4200Y263300D02*Y256700D01*
X10800D01*
Y263300D01*
X4200D01*
G37*
G54D46*X17500Y260000D03*
X7500Y250000D03*
X17500D03*
G54D47*G36*
X194200Y263300D02*Y256700D01*
X200800D01*
Y263300D01*
X194200D01*
G37*
G54D46*X207500Y260000D03*
X197500Y250000D03*
X207500D03*
X102500Y240000D03*
Y250000D03*
X112500Y240000D03*
Y250000D03*
G54D47*G36*
X79200Y243300D02*Y236700D01*
X85800D01*
Y243300D01*
X79200D01*
G37*
G54D46*X82500Y250000D03*
X92500Y240000D03*
Y250000D03*
X122500Y240000D03*
X132500D03*
Y250000D03*
X197500Y240000D03*
X207500D03*
X197500Y230000D03*
X207500D03*
X197500Y220000D03*
X207500D03*
X197500Y210000D03*
X207500D03*
X197500Y200000D03*
X207500D03*
X197500Y190000D03*
Y180000D03*
Y170000D03*
X207500Y190000D03*
Y180000D03*
Y170000D03*
Y160000D03*
Y150000D03*
Y140000D03*
X197500Y160000D03*
Y150000D03*
Y140000D03*
Y130000D03*
X207500D03*
X197500Y120000D03*
Y110000D03*
Y100000D03*
X207500Y120000D03*
Y110000D03*
Y100000D03*
Y90000D03*
Y80000D03*
Y70000D03*
X197500Y90000D03*
Y80000D03*
Y70000D03*
Y60000D03*
X207500D03*
Y50000D03*
Y40000D03*
X197500Y50000D03*
Y40000D03*
G54D47*G36*
X96700Y18300D02*Y11700D01*
X103300D01*
Y18300D01*
X96700D01*
G37*
G54D46*X100000Y25000D03*
X110000Y15000D03*
Y25000D03*
X120000Y15000D03*
Y25000D03*
X130000Y15000D03*
Y25000D03*
X140000D03*
X150000D03*
X160000D03*
X170000D03*
X140000Y15000D03*
X150000D03*
X160000D03*
X170000D03*
M02*
