M48
INCH
T38C0.035
T37C0.020
T36C0.038
%
T37
X009550Y019800
X010550Y018550
X011250Y019350
X012900Y018000
X013300Y012000
X014500Y018150
X014550Y019500
X014950Y018550
X016250Y013000
X016600Y011500
X017400Y018200
T38
X003550Y019250
X003700Y011000
X004900Y018050
X005200Y022450
X005200Y019200
X006350Y019350
X006500Y024550
X006650Y003350
X008250Y022550
X008650Y020300
X008650Y008100
X008850Y006950
X009700Y010300
X009950Y017550
X010350Y020300
X010650Y019150
X013450Y022550
X014400Y023350
X015850Y010350
X016700Y006600
X018250Y005850
T36
X000750Y026000
X000750Y025000
X000750Y024000
X000750Y023000
X000750Y022000
X000750Y021000
X000750Y020000
X000750Y019000
X000750Y018000
X000750Y017000
X000750Y016000
X000750Y015000
X000750Y014000
X000750Y013000
X000750Y012000
X000750Y011000
X000750Y010000
X000750Y009000
X000750Y008000
X000750Y007000
X000750Y006000
X000750Y005000
X000750Y004000
X001750Y026000
X001750Y025000
X001750Y024000
X001750Y023000
X001750Y022000
X001750Y021000
X001750Y020000
X001750Y019000
X001750Y018000
X001750Y017000
X001750Y016000
X001750Y015000
X001750Y014000
X001750Y013000
X001750Y012000
X001750Y011000
X001750Y010000
X001750Y009000
X001750Y008000
X001750Y007000
X001750Y006000
X001750Y005000
X001750Y004000
X008250Y025000
X008250Y024000
X009250Y025000
X009250Y024000
X010000Y002500
X010000Y001500
X010250Y025000
X010250Y024000
X011000Y002500
X011000Y001500
X011250Y025000
X011250Y024000
X012000Y002500
X012000Y001500
X012250Y025000
X012250Y024000
X013000Y002500
X013000Y001500
X013250Y025000
X013250Y024000
X014000Y002500
X014000Y001500
X015000Y002500
X015000Y001500
X016000Y002500
X016000Y001500
X017000Y002500
X017000Y001500
X019750Y026000
X019750Y025000
X019750Y024000
X019750Y023000
X019750Y022000
X019750Y021000
X019750Y020000
X019750Y019000
X019750Y018000
X019750Y017000
X019750Y016000
X019750Y015000
X019750Y014000
X019750Y013000
X019750Y012000
X019750Y011000
X019750Y010000
X019750Y009000
X019750Y008000
X019750Y007000
X019750Y006000
X019750Y005000
X019750Y004000
X020750Y026000
X020750Y025000
X020750Y024000
X020750Y023000
X020750Y022000
X020750Y021000
X020750Y020000
X020750Y019000
X020750Y018000
X020750Y017000
X020750Y016000
X020750Y015000
X020750Y014000
X020750Y013000
X020750Y012000
X020750Y011000
X020750Y010000
X020750Y009000
X020750Y008000
X020750Y007000
X020750Y006000
X020750Y005000
X020750Y004000
M30
