G04 start of page 6 for group -4063 idx -4063 *
G04 Title: (unknown), componentmask *
G04 Creator: pcb 20140316 *
G04 CreationDate: Tue 10 Mar 2015 16:42:44 GMT UTC *
G04 For: db9052 *
G04 Format: Gerber/RS-274X *
G04 PCB-Dimensions (mil): 2150.00 2800.00 *
G04 PCB-Coordinate-Origin: lower left *
%MOIN*%
%FSLAX25Y25*%
%LNTOPMASK*%
%ADD45R,0.0140X0.0140*%
%ADD44R,0.0355X0.0355*%
%ADD43R,0.0230X0.0230*%
%ADD42R,0.0572X0.0572*%
%ADD41R,0.0300X0.0300*%
%ADD40C,0.0001*%
%ADD39C,0.0660*%
G54D39*X7500Y240000D03*
X17500D03*
X7500Y230000D03*
X17500D03*
X7500Y220000D03*
X17500D03*
X7500Y210000D03*
X17500D03*
X7500Y200000D03*
Y190000D03*
Y180000D03*
X17500Y200000D03*
Y190000D03*
Y180000D03*
X7500Y170000D03*
Y160000D03*
Y150000D03*
Y140000D03*
X17500Y170000D03*
Y160000D03*
Y150000D03*
Y140000D03*
X7500Y130000D03*
Y120000D03*
Y110000D03*
X17500Y130000D03*
Y120000D03*
Y110000D03*
Y100000D03*
Y90000D03*
Y80000D03*
X7500Y100000D03*
Y90000D03*
Y80000D03*
Y70000D03*
X17500D03*
X7500Y60000D03*
Y50000D03*
Y40000D03*
X17500Y60000D03*
Y50000D03*
Y40000D03*
X122500Y250000D03*
G54D40*G36*
X4200Y263300D02*Y256700D01*
X10800D01*
Y263300D01*
X4200D01*
G37*
G54D39*X17500Y260000D03*
X7500Y250000D03*
X17500D03*
G54D40*G36*
X194200Y263300D02*Y256700D01*
X200800D01*
Y263300D01*
X194200D01*
G37*
G54D39*X207500Y260000D03*
X197500Y250000D03*
X207500D03*
X102500Y240000D03*
Y250000D03*
X112500Y240000D03*
Y250000D03*
G54D40*G36*
X79200Y243300D02*Y236700D01*
X85800D01*
Y243300D01*
X79200D01*
G37*
G54D39*X82500Y250000D03*
X92500Y240000D03*
Y250000D03*
X122500Y240000D03*
X132500D03*
Y250000D03*
X197500Y240000D03*
X207500D03*
X197500Y230000D03*
X207500D03*
X197500Y220000D03*
X207500D03*
X197500Y210000D03*
X207500D03*
X197500Y200000D03*
X207500D03*
X197500Y190000D03*
Y180000D03*
Y170000D03*
X207500Y190000D03*
Y180000D03*
Y170000D03*
Y160000D03*
Y150000D03*
Y140000D03*
X197500Y160000D03*
Y150000D03*
Y140000D03*
Y130000D03*
X207500D03*
X197500Y120000D03*
Y110000D03*
Y100000D03*
X207500Y120000D03*
Y110000D03*
Y100000D03*
Y90000D03*
Y80000D03*
Y70000D03*
X197500Y90000D03*
Y80000D03*
Y70000D03*
Y60000D03*
X207500D03*
Y50000D03*
Y40000D03*
X197500Y50000D03*
Y40000D03*
G54D40*G36*
X96700Y18300D02*Y11700D01*
X103300D01*
Y18300D01*
X96700D01*
G37*
G54D39*X100000Y25000D03*
X110000Y15000D03*
Y25000D03*
X120000Y15000D03*
Y25000D03*
X130000Y15000D03*
Y25000D03*
X140000D03*
X150000D03*
X160000D03*
X170000D03*
X140000Y15000D03*
X150000D03*
X160000D03*
X170000D03*
G54D41*X58750Y180000D02*X65250D01*
X58750Y175000D02*X65250D01*
X58750Y170000D02*X65250D01*
X58750Y165000D02*X65250D01*
G54D42*X45650Y166457D02*X46436D01*
X45650Y173543D02*X46436D01*
G54D41*X52500Y216000D02*X59000D01*
X73000D02*X79500D01*
G54D42*X27607Y229914D02*X28393D01*
X27607Y237000D02*X28393D01*
G54D41*X52500Y211000D02*X59000D01*
X73000D02*X79500D01*
G54D42*X43607Y209543D02*X44393D01*
G54D41*X52500Y206000D02*X59000D01*
X52500Y201000D02*X59000D01*
X73000D02*X79500D01*
X73000Y206000D02*X79500D01*
G54D42*X43607Y202457D02*X44393D01*
X69414Y191893D02*Y191107D01*
X69607Y225414D02*X70393D01*
X69607Y232500D02*X70393D01*
X76500Y191893D02*Y191107D01*
G54D41*X79250Y165000D02*X85750D01*
X79250Y170000D02*X85750D01*
X79250Y175000D02*X85750D01*
X79250Y180000D02*X85750D01*
G54D42*X98107Y183000D02*X98893D01*
X98107Y190086D02*X98893D01*
G54D43*X110197Y185354D02*X114803D01*
X110197Y182795D02*X114803D01*
X110197Y180236D02*X114803D01*
X110197Y177677D02*X114803D01*
X110197Y175118D02*X114803D01*
X110197Y172559D02*X114803D01*
X110197Y170000D02*X114803D01*
G54D42*X96107Y158914D02*X96893D01*
X96107Y166000D02*X96893D01*
G54D44*X97382Y216492D02*Y215508D01*
X92264Y207492D02*Y206508D01*
X97382Y207492D02*Y206508D01*
X102500Y216492D02*Y215508D01*
G54D41*X110632Y216000D02*X117132D01*
X110632Y211000D02*X117132D01*
X110632Y206000D02*X117132D01*
X110632Y201000D02*X117132D01*
G54D43*X133425Y170000D02*X138031D01*
X133425Y172559D02*X138031D01*
X133425Y175118D02*X138031D01*
X133425Y177677D02*X138031D01*
X133425Y180236D02*X138031D01*
X133425Y182795D02*X138031D01*
X133425Y185354D02*X138031D01*
G54D44*X150441Y201492D02*Y200508D01*
X145323Y201492D02*Y200508D01*
G54D41*X131132Y201000D02*X137632D01*
X131132Y206000D02*X137632D01*
G54D44*X145264Y211492D02*Y210508D01*
G54D41*X131132Y211000D02*X137632D01*
X131132Y216000D02*X137632D01*
G54D44*X150382Y211492D02*Y210508D01*
G54D42*X140957Y225893D02*Y225107D01*
X148043Y225893D02*Y225107D01*
G54D41*X47500Y49250D02*Y42750D01*
X52500Y49250D02*Y42750D01*
X57500Y49250D02*Y42750D01*
X62500Y49250D02*Y42750D01*
G54D42*X59586Y33893D02*Y33107D01*
X52500Y33893D02*Y33107D01*
G54D41*X62500Y69750D02*Y63250D01*
X57500Y69750D02*Y63250D01*
X52500Y69750D02*Y63250D01*
X47500Y69750D02*Y63250D01*
G54D42*X174607Y65586D02*X175393D01*
X174607Y58500D02*X175393D01*
G54D45*X156736Y66737D02*X160134D01*
X156736Y68705D02*X160134D01*
X156736Y70674D02*X160134D01*
X156736Y72642D02*X160134D01*
X156736Y74611D02*X160134D01*
X156736Y76579D02*X160134D01*
X156736Y78548D02*X160134D01*
X156736Y80516D02*X160134D01*
X156736Y82485D02*X160134D01*
X156736Y84453D02*X160134D01*
X156736Y86422D02*X160134D01*
X156736Y88390D02*X160134D01*
X156736Y90359D02*X160134D01*
X156736Y92327D02*X160134D01*
X156736Y94296D02*X160134D01*
X156736Y96264D02*X160134D01*
X150763Y105634D02*Y102236D01*
X148795Y105634D02*Y102236D01*
X146826Y105634D02*Y102236D01*
X144858Y105634D02*Y102236D01*
X142889Y105634D02*Y102236D01*
G54D42*X148000Y113893D02*Y113107D01*
X140914Y113893D02*Y113107D01*
G54D45*X140921Y105634D02*Y102236D01*
X138952Y105634D02*Y102236D01*
X136984Y105634D02*Y102236D01*
X135015Y105634D02*Y102236D01*
X133047Y105634D02*Y102236D01*
X131078Y105634D02*Y102236D01*
X129110Y105634D02*Y102236D01*
X127141Y105634D02*Y102236D01*
X125173Y105634D02*Y102236D01*
X123204Y105634D02*Y102236D01*
X121236Y105634D02*Y102236D01*
X111866Y96263D02*X115264D01*
X111866Y94295D02*X115264D01*
X111866Y92326D02*X115264D01*
X111866Y90358D02*X115264D01*
X111866Y88389D02*X115264D01*
X111866Y86421D02*X115264D01*
X111866Y84452D02*X115264D01*
X111866Y82484D02*X115264D01*
X111866Y80515D02*X115264D01*
X111866Y78547D02*X115264D01*
X111866Y76578D02*X115264D01*
X111866Y74610D02*X115264D01*
G54D42*X104000Y81393D02*Y80607D01*
Y94393D02*Y93607D01*
X96914Y81393D02*Y80607D01*
Y94393D02*Y93607D01*
X78607Y91086D02*X79393D01*
X78607Y84000D02*X79393D01*
X78607Y76500D02*X79393D01*
X104000Y72393D02*Y71607D01*
X96914Y72393D02*Y71607D01*
X78607Y69414D02*X79393D01*
G54D45*X111866Y72641D02*X115264D01*
X111866Y70673D02*X115264D01*
X111866Y68704D02*X115264D01*
X111866Y66736D02*X115264D01*
X121237Y60764D02*Y57366D01*
X123205Y60764D02*Y57366D01*
X125174Y60764D02*Y57366D01*
X127142Y60764D02*Y57366D01*
G54D42*X104000Y63893D02*Y63107D01*
X96914Y63893D02*Y63107D01*
G54D45*X129111Y60764D02*Y57366D01*
X131079Y60764D02*Y57366D01*
X133048Y60764D02*Y57366D01*
X135016Y60764D02*Y57366D01*
X136985Y60764D02*Y57366D01*
X138953Y60764D02*Y57366D01*
X140922Y60764D02*Y57366D01*
X142890Y60764D02*Y57366D01*
X144859Y60764D02*Y57366D01*
X146827Y60764D02*Y57366D01*
X148796Y60764D02*Y57366D01*
X150764Y60764D02*Y57366D01*
M02*
