G04 start of page 2 for group 0 idx 0 *
G04 Title: (unknown), top *
G04 Creator: pcb 20140316 *
G04 CreationDate: Tue 10 Mar 2015 16:42:44 GMT UTC *
G04 For: db9052 *
G04 Format: Gerber/RS-274X *
G04 PCB-Dimensions (mil): 2150.00 2800.00 *
G04 PCB-Coordinate-Origin: lower left *
%MOIN*%
%FSLAX25Y25*%
%LNTOP*%
%ADD24C,0.0380*%
%ADD23C,0.0350*%
%ADD22C,0.0200*%
%ADD21R,0.0110X0.0110*%
%ADD20R,0.0295X0.0295*%
%ADD19R,0.0130X0.0130*%
%ADD18R,0.0512X0.0512*%
%ADD17R,0.0200X0.0200*%
%ADD16C,0.0600*%
%ADD15C,0.0250*%
%ADD14C,0.0100*%
%ADD13C,0.0400*%
%ADD12C,0.0500*%
%ADD11C,0.0001*%
G54D11*G36*
X119000Y98500D02*X137452D01*
Y88607D01*
X137447Y88548D01*
X137466Y88313D01*
X137521Y88083D01*
X137611Y87865D01*
X137735Y87664D01*
X137888Y87484D01*
X137933Y87446D01*
X149898Y75481D01*
X149936Y75436D01*
X150116Y75283D01*
X150317Y75159D01*
X150535Y75069D01*
X150765Y75014D01*
X151000Y74995D01*
X151059Y75000D01*
X153000D01*
Y64500D01*
X119000D01*
Y98500D01*
G37*
G36*
X140452D02*X153000D01*
Y78000D01*
X151621D01*
X140452Y89169D01*
Y98500D01*
G37*
G54D12*X7500Y230000D02*X27914D01*
G54D13*X28000Y229914D01*
Y229500D01*
G54D12*Y44500D01*
X7500Y260000D02*X23000D01*
X28000Y255000D01*
Y237000D01*
G54D14*X113565Y78547D02*X110047D01*
X108000Y76500D01*
X113565Y90358D02*X107642D01*
X113565Y84452D02*X107452D01*
X113565Y88389D02*Y86421D01*
Y82484D02*Y80515D01*
X107642Y90358D02*X104000Y94000D01*
G54D15*X84043Y90957D02*X87500Y87500D01*
X113565D01*
X79043Y90957D02*X84043D01*
X83500Y84000D02*X87500D01*
X90500Y81000D01*
G54D14*X113565Y74610D02*Y72641D01*
G54D15*Y69565D02*X120065D01*
X121000Y70500D01*
X113565Y73565D02*X105565D01*
X84000Y69500D02*X87000Y72500D01*
X91000D01*
G54D14*X113565Y76578D02*X119578D01*
X121000Y78000D01*
Y81500D01*
G54D15*X113565D02*X121000D01*
G54D14*X108000Y76500D02*X61500D01*
G54D13*X87500Y69500D02*X79086D01*
X79000Y69414D01*
G54D15*X105565Y73565D02*X104000Y72000D01*
G54D14*X107452Y84452D02*X104000Y81000D01*
G54D15*X79000Y84000D02*X83500D01*
X86500Y81000D01*
X96914D01*
G54D13*Y63500D02*X93500D01*
X87500Y69500D01*
X87750Y69250D02*X90500Y72000D01*
X96914D01*
G54D15*X90000Y63500D02*X94000D01*
X92000Y72000D02*Y63500D01*
G54D14*X113565Y66736D02*X107236D01*
X113565Y70673D02*Y68704D01*
X107236Y66736D02*X104000Y63500D01*
G54D15*X84000Y69500D02*X90000Y63500D01*
G54D12*X114500Y103000D02*X121500Y96000D01*
G54D15*X114500Y104000D02*X113500Y103000D01*
Y93000D02*Y103000D01*
G54D12*X97000D02*X114500D01*
X97000D02*Y94086D01*
Y98500D02*Y99000D01*
Y94086D02*X96914Y94000D01*
G54D15*X132000Y104000D02*X114500D01*
G54D12*X42000Y126000D02*X137500D01*
X141000Y122500D01*
Y113586D01*
X140914Y113500D01*
G54D14*X133047Y103935D02*X131078D01*
G54D12*X97000Y99000D02*X101000Y103000D01*
G54D14*X61500Y76500D02*X57500Y72500D01*
Y66500D01*
G54D12*X79000Y91086D02*X30914D01*
X33914D02*X31086D01*
G54D13*X62500Y46000D02*Y36414D01*
X59586Y33500D01*
X66500D02*X59586D01*
X66000D02*X62500Y37000D01*
G54D12*X52500Y46000D02*Y30000D01*
X56500Y26000D01*
X56750Y25750D02*X67750D01*
X39000Y33500D02*X52500D01*
X67750Y25750D02*X98500Y56500D01*
G54D14*X100000Y30000D02*Y25000D01*
G54D12*X98500Y56500D02*X102500D01*
X104000Y58000D01*
Y63000D01*
X28000Y44500D02*X39000Y33500D01*
X30914Y91086D02*X28000Y94000D01*
X37000Y110000D02*X30500D01*
X28000Y112500D01*
X33500Y110000D02*X30500D01*
X28000Y107500D01*
X31086Y91086D02*X28000Y88000D01*
X35500Y132500D02*X42000Y126000D01*
G54D14*X138952Y103935D02*Y111538D01*
X140914Y113500D01*
X138952Y104048D02*Y88548D01*
X136984Y103935D02*Y108016D01*
X133000Y112000D01*
Y120000D02*Y112000D01*
X82500Y170000D02*X112500D01*
X92264Y170764D02*X91500Y170000D01*
X92264Y170736D02*X93000Y170000D01*
X94000D02*Y168500D01*
X99000D02*Y170000D01*
X94000Y169000D02*X99000D01*
X94000Y168500D02*X96500Y166000D01*
X99000Y168500D01*
G54D15*X96500Y158914D02*X77500D01*
X69457Y166957D01*
G54D14*X112500Y172559D02*X102441D01*
X99500Y175500D01*
G54D15*X100000Y175000D01*
G54D14*X124000Y213500D02*Y218500D01*
X121000Y221500D01*
X115000D01*
X112500Y224000D01*
G54D15*X134500Y216118D02*X134382Y216000D01*
G54D12*X134500Y225500D02*X140957D01*
G54D14*X121000Y180500D02*Y204000D01*
X124000Y179500D02*Y198000D01*
X127000Y201000D01*
X134382D01*
X112500Y177677D02*X118177D01*
X121000Y180500D01*
X112500Y175118D02*X119618D01*
X124000Y179500D01*
X121000Y204000D02*X119000Y206000D01*
X113882D01*
X112500Y185354D02*Y193500D01*
X129000Y180000D02*X135492D01*
X135728Y180236D01*
X135874Y185500D02*X135728Y185354D01*
X92264Y198000D02*X95500D01*
X93500D02*X93264D01*
G54D15*X113882Y201000D02*X106000D01*
X103500Y203500D01*
G54D14*X93264Y198000D02*X92264Y199000D01*
G54D15*X76250Y201000D02*X84500D01*
X86500Y203000D01*
G54D14*X93500Y198000D02*X92264Y196764D01*
G54D12*X98500Y190086D02*X99914Y191500D01*
X106500D01*
G54D15*X112500Y180236D02*X102264D01*
X99500Y183000D01*
Y175500D01*
X100000Y177972D02*X102264Y180236D01*
G54D14*X112500Y182795D02*X108205D01*
G54D15*X100000Y175000D02*Y177972D01*
G54D14*X108205Y182795D02*X105500Y185500D01*
X92264Y170736D02*Y239764D01*
X92500Y240000D01*
X113882Y211000D02*X98500D01*
X97500Y210000D02*Y207118D01*
X97382Y207000D01*
Y207118D02*X97500Y207000D01*
X98500Y211000D02*X97500Y210000D01*
X97382Y216000D02*Y207118D01*
X99000Y211000D02*X98264D01*
X97382Y211882D01*
G54D15*X134500Y225500D02*Y216118D01*
X62000Y175000D02*X47500D01*
X62000Y165000D02*X47500D01*
X46043Y166457D01*
X47500Y175000D02*X46043Y173543D01*
G54D12*X52000Y192000D02*Y176500D01*
X49000Y180500D02*X52000Y183500D01*
X49000Y180500D02*X52000Y177500D01*
X49000Y180500D02*Y176500D01*
X35500Y132500D02*Y192500D01*
G54D15*X69457Y191457D02*Y166957D01*
X63500Y193500D02*X65457Y195457D01*
X69457Y166957D02*X67500Y165000D01*
X62500D01*
X44000Y209543D02*X45457Y211000D01*
X55750D01*
G54D12*X28000Y230000D02*X58500D01*
X52000Y224500D02*Y230000D01*
G54D15*X76500Y191500D02*Y200750D01*
X76250Y201000D01*
X69414Y191500D02*X65500Y195414D01*
Y202000D01*
X61500Y206000D01*
X56000D01*
X76250Y216000D02*Y225250D01*
X76414Y225414D01*
G54D12*X58500Y230000D02*X63000Y225500D01*
X69914D01*
X70000Y225414D01*
X77914D01*
X82500Y230000D01*
Y240000D01*
X76250Y225500D02*X82500D01*
Y240000D01*
X132500Y250000D02*X33000D01*
X27750Y255250D01*
X34000Y250000D02*X28000Y244000D01*
X70000Y232500D02*Y247000D01*
X67000Y250000D01*
X70000Y246500D02*Y247000D01*
X73000Y250000D01*
X65000Y245500D02*Y246000D01*
X61000Y250000D01*
X70000Y241000D01*
G54D14*X127500Y245000D02*X122500Y240000D01*
G54D15*X55750Y201000D02*X45457D01*
X44000Y202457D01*
G54D14*X189000Y171000D02*X193000Y175000D01*
X202500D01*
X207500Y180000D01*
X186000Y172500D02*X193500Y180000D01*
X197500D01*
X183000Y175500D02*X192500Y185000D01*
X163500Y182000D02*X154059Y172559D01*
X192500Y185000D02*X202500D01*
X192500Y190000D02*X197500D01*
X192500Y195000D02*X202500D01*
X191000Y205000D02*X202500D01*
X191000Y210000D02*X197500D01*
X202500Y225000D02*X190000D01*
X202500Y185000D02*X207500Y190000D01*
X202500Y195000D02*X207500Y200000D01*
X202500Y205000D02*X207500Y210000D01*
Y230000D02*X202500Y225000D01*
X180000Y177500D02*X192500Y190000D01*
X177000Y179500D02*X192500Y195000D01*
X170500Y184500D02*X191000Y205000D01*
X167000Y186000D02*X191000Y210000D01*
X190000Y225000D02*X163500Y198500D01*
Y182000D01*
X156000Y183177D02*Y228500D01*
X170500Y184500D02*Y92500D01*
X173500Y182000D02*Y90500D01*
X177000Y179500D02*Y88500D01*
X170500Y92500D02*Y98000D01*
X180000Y177500D02*Y86500D01*
X183000Y175500D02*Y84000D01*
X186000Y172500D02*Y81500D01*
X189000Y171000D02*Y80000D01*
X167000Y141500D02*Y186000D01*
X138952Y88548D02*X151000Y76500D01*
X158356D01*
X158435Y76579D01*
Y82485D02*Y84453D01*
X163500Y88500D02*X158545D01*
X158435Y88390D01*
Y68705D02*X164795D01*
X158435Y72642D02*X177142D01*
X158435Y74611D02*X173611D01*
X158435Y78548D02*X172048D01*
X173611Y74611D02*X183000Y84000D01*
X172048Y78548D02*X180000Y86500D01*
X169016Y80516D02*X177000Y88500D01*
X166435Y83435D02*X173500Y90500D01*
X164422Y86422D02*X170500Y92500D01*
X158435Y80516D02*X169016D01*
X158435Y83435D02*X166435D01*
X158435Y86422D02*X164422D01*
X158435Y92327D02*X161327D01*
X164000Y95000D01*
X158435Y90359D02*X162359D01*
X166000Y94000D01*
X168000Y93000D02*X163500Y88500D01*
G54D15*X142000Y104000D02*X155500D01*
X158500Y101000D01*
X158000Y104000D02*X158500Y103500D01*
X151000Y96000D01*
X154500Y100000D02*Y104000D01*
Y100000D02*X155000Y99500D01*
X158500D01*
X148000Y113500D02*Y104000D01*
X155000D02*X158000D01*
G54D14*X140921Y103935D02*X142889D01*
X177142Y72642D02*X186000Y81500D01*
X179674Y70674D02*X189000Y80000D01*
G54D13*X175000Y58500D02*X182500D01*
G54D14*X166672D02*X174500D01*
X158435Y66737D02*X166672Y58500D01*
X164795Y68705D02*X167000Y66500D01*
X158435Y70674D02*X179674D01*
G54D12*X167000Y66000D02*X174500D01*
G54D15*X158500Y101000D02*Y97000D01*
Y103500D02*Y98500D01*
G54D14*X164000Y95000D02*Y107000D01*
X166000Y94000D02*Y110000D01*
X162500Y113500D01*
X159000Y112000D02*X164000Y107000D01*
X162500Y130000D02*Y113500D01*
X168000Y93000D02*Y113000D01*
X166000Y115000D01*
X159000Y112000D02*Y133500D01*
X167000Y141500D01*
X135016Y59065D02*Y20016D01*
X136985Y59065D02*Y28015D01*
X133048Y59065D02*Y28048D01*
X131079Y59065D02*Y36079D01*
X129111Y59065D02*Y39111D01*
X127142Y59065D02*Y42142D01*
X135016Y20016D02*X130000Y15000D01*
X145000Y30000D02*Y20000D01*
X140000Y15000D01*
X136985Y28015D02*X140000Y25000D01*
X138953Y36047D02*X145000Y30000D01*
X133048Y28048D02*X130000Y25000D01*
X140922Y39078D02*X150000Y30000D01*
X125000D02*Y20000D01*
X120000Y15000D01*
X131079Y36079D02*X125000Y30000D01*
X129111Y39111D02*X120000Y30000D01*
Y25000D01*
X115000Y30000D02*Y20000D01*
X110000Y15000D01*
X105000Y20000D02*X100000Y15000D01*
X127142Y42142D02*X115000Y30000D01*
X125174Y44674D02*X110000Y29500D01*
Y25000D01*
X123205Y48205D02*X105000Y30000D01*
X121237Y51237D02*X100000Y30000D01*
X105000D02*Y20000D01*
X125174Y59065D02*Y44674D01*
X123205Y59065D02*Y48205D01*
X121237Y59065D02*Y51237D01*
X138953Y59065D02*Y36047D01*
X140922Y59065D02*Y39078D01*
X142890Y59065D02*Y41610D01*
X144859Y59065D02*Y45141D01*
X146827Y59065D02*Y48173D01*
X148796Y59065D02*Y51204D01*
X150764Y59065D02*Y54236D01*
X150000Y30000D02*Y25000D01*
X160000Y30000D02*Y25000D01*
X142890Y41610D02*X155000Y29500D01*
X144859Y45141D02*X160000Y30000D01*
X146827Y48173D02*X165000Y30000D01*
X148796Y51204D02*X170000Y30000D01*
X150764Y54236D02*X175000Y30000D01*
X155000Y29500D02*Y20000D01*
X150000Y15000D01*
X165000Y30000D02*Y20000D01*
X160000Y15000D01*
X170000Y30000D02*Y25000D01*
X175000Y30000D02*Y20000D01*
X170000Y15000D01*
X134382Y211000D02*X145264D01*
X134382Y206000D02*X150382D01*
Y211000D01*
X134500D02*X126500D01*
X124000Y213500D01*
X149500Y206000D02*X150382Y206882D01*
X102500Y216000D02*X113882D01*
X102500D02*Y240000D01*
X112500Y224000D02*Y240000D01*
X148000Y245000D02*X127500D01*
X156000Y228500D02*X144500Y240000D01*
G54D12*X144000Y233500D02*X148000Y229500D01*
Y227000D01*
G54D14*X144500Y240000D02*X132500D01*
X160000Y235000D02*X150000Y245000D01*
X147500D01*
X150441Y201000D02*Y205059D01*
X145500Y195000D02*Y200823D01*
X145323Y201000D01*
X150441Y205059D02*X149500Y206000D01*
X150382Y206882D02*X150441Y206823D01*
Y204559D01*
X150500Y177677D02*X156000Y183177D01*
X152000Y175118D02*X160000Y183118D01*
Y235000D01*
X154059Y172559D02*X135728D01*
Y175118D02*X152118D01*
X135728Y177677D02*X150677D01*
X145000Y181500D02*X143705Y182795D01*
X135728D01*
X149500Y185500D02*X135874D01*
G54D16*X7500Y240000D03*
X17500D03*
X7500Y230000D03*
X17500D03*
X7500Y220000D03*
X17500D03*
X7500Y210000D03*
X17500D03*
X7500Y200000D03*
Y190000D03*
Y180000D03*
X17500Y200000D03*
Y190000D03*
Y180000D03*
X7500Y170000D03*
Y160000D03*
Y150000D03*
Y140000D03*
X17500Y170000D03*
Y160000D03*
Y150000D03*
Y140000D03*
X7500Y130000D03*
Y120000D03*
Y110000D03*
X17500Y130000D03*
Y120000D03*
Y110000D03*
Y100000D03*
Y90000D03*
Y80000D03*
X7500Y100000D03*
Y90000D03*
Y80000D03*
Y70000D03*
X17500D03*
X7500Y60000D03*
Y50000D03*
Y40000D03*
X17500Y60000D03*
Y50000D03*
Y40000D03*
X122500Y250000D03*
G54D11*G36*
X4500Y263000D02*Y257000D01*
X10500D01*
Y263000D01*
X4500D01*
G37*
G54D16*X17500Y260000D03*
X7500Y250000D03*
X17500D03*
G54D11*G36*
X194500Y263000D02*Y257000D01*
X200500D01*
Y263000D01*
X194500D01*
G37*
G54D16*X207500Y260000D03*
X197500Y250000D03*
X207500D03*
X102500Y240000D03*
Y250000D03*
X112500Y240000D03*
Y250000D03*
G54D11*G36*
X79500Y243000D02*Y237000D01*
X85500D01*
Y243000D01*
X79500D01*
G37*
G54D16*X82500Y250000D03*
X92500Y240000D03*
Y250000D03*
X122500Y240000D03*
X132500D03*
Y250000D03*
X197500Y240000D03*
X207500D03*
X197500Y230000D03*
X207500D03*
X197500Y220000D03*
X207500D03*
X197500Y210000D03*
X207500D03*
X197500Y200000D03*
X207500D03*
X197500Y190000D03*
Y180000D03*
Y170000D03*
X207500Y190000D03*
Y180000D03*
Y170000D03*
Y160000D03*
Y150000D03*
Y140000D03*
X197500Y160000D03*
Y150000D03*
Y140000D03*
Y130000D03*
X207500D03*
X197500Y120000D03*
Y110000D03*
Y100000D03*
X207500Y120000D03*
Y110000D03*
Y100000D03*
Y90000D03*
Y80000D03*
Y70000D03*
X197500Y90000D03*
Y80000D03*
Y70000D03*
Y60000D03*
X207500D03*
Y50000D03*
Y40000D03*
X197500Y50000D03*
Y40000D03*
G54D11*G36*
X97000Y18000D02*Y12000D01*
X103000D01*
Y18000D01*
X97000D01*
G37*
G54D16*X100000Y25000D03*
X110000Y15000D03*
Y25000D03*
X120000Y15000D03*
Y25000D03*
X130000Y15000D03*
Y25000D03*
X140000D03*
X150000D03*
X160000D03*
X170000D03*
X140000Y15000D03*
X150000D03*
X160000D03*
X170000D03*
G54D17*X58750Y180000D02*X65250D01*
X58750Y175000D02*X65250D01*
X58750Y170000D02*X65250D01*
X58750Y165000D02*X65250D01*
G54D18*X45650Y166457D02*X46436D01*
X45650Y173543D02*X46436D01*
G54D17*X52500Y216000D02*X59000D01*
X73000D02*X79500D01*
G54D18*X27607Y229914D02*X28393D01*
X27607Y237000D02*X28393D01*
G54D17*X52500Y211000D02*X59000D01*
X73000D02*X79500D01*
G54D18*X43607Y209543D02*X44393D01*
G54D17*X52500Y206000D02*X59000D01*
X52500Y201000D02*X59000D01*
X73000D02*X79500D01*
X73000Y206000D02*X79500D01*
G54D18*X43607Y202457D02*X44393D01*
X69414Y191893D02*Y191107D01*
X69607Y225414D02*X70393D01*
X69607Y232500D02*X70393D01*
X76500Y191893D02*Y191107D01*
G54D17*X79250Y165000D02*X85750D01*
X79250Y170000D02*X85750D01*
X79250Y175000D02*X85750D01*
X79250Y180000D02*X85750D01*
G54D18*X98107Y183000D02*X98893D01*
X98107Y190086D02*X98893D01*
G54D19*X110197Y185354D02*X114803D01*
X110197Y182795D02*X114803D01*
X110197Y180236D02*X114803D01*
X110197Y177677D02*X114803D01*
X110197Y175118D02*X114803D01*
X110197Y172559D02*X114803D01*
X110197Y170000D02*X114803D01*
G54D18*X96107Y158914D02*X96893D01*
X96107Y166000D02*X96893D01*
G54D20*X97382Y216492D02*Y215508D01*
X92264Y207492D02*Y206508D01*
X97382Y207492D02*Y206508D01*
X102500Y216492D02*Y215508D01*
G54D17*X110632Y216000D02*X117132D01*
X110632Y211000D02*X117132D01*
X110632Y206000D02*X117132D01*
X110632Y201000D02*X117132D01*
G54D19*X133425Y170000D02*X138031D01*
X133425Y172559D02*X138031D01*
X133425Y175118D02*X138031D01*
X133425Y177677D02*X138031D01*
X133425Y180236D02*X138031D01*
X133425Y182795D02*X138031D01*
X133425Y185354D02*X138031D01*
G54D20*X150441Y201492D02*Y200508D01*
X145323Y201492D02*Y200508D01*
G54D17*X131132Y201000D02*X137632D01*
X131132Y206000D02*X137632D01*
G54D20*X145264Y211492D02*Y210508D01*
G54D17*X131132Y211000D02*X137632D01*
X131132Y216000D02*X137632D01*
G54D20*X150382Y211492D02*Y210508D01*
G54D18*X140957Y225893D02*Y225107D01*
X148043Y225893D02*Y225107D01*
G54D17*X47500Y49250D02*Y42750D01*
X52500Y49250D02*Y42750D01*
X57500Y49250D02*Y42750D01*
X62500Y49250D02*Y42750D01*
G54D18*X59586Y33893D02*Y33107D01*
X52500Y33893D02*Y33107D01*
G54D17*X62500Y69750D02*Y63250D01*
X57500Y69750D02*Y63250D01*
X52500Y69750D02*Y63250D01*
X47500Y69750D02*Y63250D01*
G54D18*X174607Y65586D02*X175393D01*
X174607Y58500D02*X175393D01*
G54D21*X156736Y66737D02*X160134D01*
X156736Y68705D02*X160134D01*
X156736Y70674D02*X160134D01*
X156736Y72642D02*X160134D01*
X156736Y74611D02*X160134D01*
X156736Y76579D02*X160134D01*
X156736Y78548D02*X160134D01*
X156736Y80516D02*X160134D01*
X156736Y82485D02*X160134D01*
X156736Y84453D02*X160134D01*
X156736Y86422D02*X160134D01*
X156736Y88390D02*X160134D01*
X156736Y90359D02*X160134D01*
X156736Y92327D02*X160134D01*
X156736Y94296D02*X160134D01*
X156736Y96264D02*X160134D01*
X150763Y105634D02*Y102236D01*
X148795Y105634D02*Y102236D01*
X146826Y105634D02*Y102236D01*
X144858Y105634D02*Y102236D01*
X142889Y105634D02*Y102236D01*
G54D18*X148000Y113893D02*Y113107D01*
X140914Y113893D02*Y113107D01*
G54D21*X140921Y105634D02*Y102236D01*
X138952Y105634D02*Y102236D01*
X136984Y105634D02*Y102236D01*
X135015Y105634D02*Y102236D01*
X133047Y105634D02*Y102236D01*
X131078Y105634D02*Y102236D01*
X129110Y105634D02*Y102236D01*
X127141Y105634D02*Y102236D01*
X125173Y105634D02*Y102236D01*
X123204Y105634D02*Y102236D01*
X121236Y105634D02*Y102236D01*
X111866Y96263D02*X115264D01*
X111866Y94295D02*X115264D01*
X111866Y92326D02*X115264D01*
X111866Y90358D02*X115264D01*
X111866Y88389D02*X115264D01*
X111866Y86421D02*X115264D01*
X111866Y84452D02*X115264D01*
X111866Y82484D02*X115264D01*
X111866Y80515D02*X115264D01*
X111866Y78547D02*X115264D01*
X111866Y76578D02*X115264D01*
X111866Y74610D02*X115264D01*
G54D18*X104000Y81393D02*Y80607D01*
Y94393D02*Y93607D01*
X96914Y81393D02*Y80607D01*
Y94393D02*Y93607D01*
X78607Y91086D02*X79393D01*
X78607Y84000D02*X79393D01*
X78607Y76500D02*X79393D01*
X104000Y72393D02*Y71607D01*
X96914Y72393D02*Y71607D01*
X78607Y69414D02*X79393D01*
G54D21*X111866Y72641D02*X115264D01*
X111866Y70673D02*X115264D01*
X111866Y68704D02*X115264D01*
X111866Y66736D02*X115264D01*
X121237Y60764D02*Y57366D01*
X123205Y60764D02*Y57366D01*
X125174Y60764D02*Y57366D01*
X127142Y60764D02*Y57366D01*
G54D18*X104000Y63893D02*Y63107D01*
X96914Y63893D02*Y63107D01*
G54D21*X129111Y60764D02*Y57366D01*
X131079Y60764D02*Y57366D01*
X133048Y60764D02*Y57366D01*
X135016Y60764D02*Y57366D01*
X136985Y60764D02*Y57366D01*
X138953Y60764D02*Y57366D01*
X140922Y60764D02*Y57366D01*
X142890Y60764D02*Y57366D01*
X144859Y60764D02*Y57366D01*
X146827Y60764D02*Y57366D01*
X148796Y60764D02*Y57366D01*
X150764Y60764D02*Y57366D01*
G54D13*X174000Y182000D03*
X145500Y195000D03*
X145000Y181500D03*
X149500Y185500D03*
X112500Y193500D03*
X95500Y198000D03*
G54D16*X86500Y203000D03*
X103500D03*
X134500Y225500D03*
X99500Y175500D03*
X106500Y191500D03*
G54D13*X105500Y185500D03*
X129000Y180000D03*
G54D16*X144000Y233500D03*
X66500Y33500D03*
X86500Y81000D03*
G54D13*X162500Y130000D03*
G54D16*X158500Y103500D03*
X167000Y66000D03*
X182500Y58500D03*
G54D13*X133000Y120000D03*
X166000Y115000D03*
G54D16*X88500Y69500D03*
X97000Y103000D03*
X37000Y110000D03*
X82500Y225500D03*
X35500Y192500D03*
X52000Y192000D03*
Y224500D03*
X65000Y245500D03*
X63500Y193500D03*
X49000Y180500D03*
G54D22*G54D23*G54D22*G54D23*G54D22*G54D23*G54D22*G54D23*G54D24*M02*
